<?xml version="1.0" encoding="UTF-8"?><svg id="white" xmlns="http://www.w3.org/2000/svg" viewBox="0 0 1525.1741 822.0347"><defs><style>.cls-1{fill:#fff;stroke-width:0px;}</style></defs><path class="cls-1" d="M279.2792,399.0848c0,8.1663-1.736,15.705-5.1863,22.6314-3.4564,6.9304-8.2785,12.8008-14.4528,17.6172-6.1747,4.8242-13.5168,8.5964-22.0354,11.3167-8.5206,2.7162-17.8453,4.0659-27.97,4.0659-12.1106,0-22.9693-1.6541-32.6058-4.972-9.6286-3.3241-19.2491-8.8065-28.8798-16.4432l15.925-25.8936c7.6522,6.4106,14.5609,11.1049,20.7373,14.0669,6.1645,2.9681,12.4686,4.4362,18.8972,4.4362,7.8984,0,14.2509-2.024,19.0689-6.1063,4.8164-4.0803,7.2286-9.5787,7.2286-16.4952,0-2.9661-.4383-5.7602-1.2981-8.3465-.8602-2.5921-2.4643-5.2563-4.8123-7.9762-2.3382-2.7121-5.5406-5.6786-9.6147-8.8885-4.0721-3.2122-9.3124-7.1745-15.719-11.8627-4.9323-3.4625-9.7405-7.0447-14.425-10.7489-4.6923-3.71-8.9446-7.6682-12.7688-11.8726-3.8202-4.2003-6.9022-8.8885-9.2526-14.0788-2.3418-5.2043-3.506-11.1307-3.506-17.797,0-7.6588,1.5979-14.6449,4.8004-20.9536,3.1959-6.3004,7.5662-11.6706,13.1187-16.1168,5.5402-4.4526,12.1827-7.9106,19.9492-10.3786,7.7587-2.4782,16.1929-3.7166,25.3017-3.7166,9.6205,0,18.9272,1.2903,27.9495,3.8665,9.0027,2.5802,17.339,6.3164,24.9978,11.2225l-14.445,23.2557c-9.8748-6.9104-20.2453-10.3688-31.116-10.3688-6.6564,0-12.1605,1.7364-16.4772,5.1945-4.3219,3.4622-6.4782,7.7804-6.4782,12.9806,0,4.9466,1.9039,9.4046,5.7245,13.3571,3.798,3.9562,10.3824,9.5226,19.7431,16.6849,9.4206,6.9304,17.2288,12.9847,23.4232,18.1792,6.2005,5.1945,11.091,10.0846,14.6851,14.6511,3.6002,4.58,6.0784,9.2223,7.4404,13.9166,1.3563,4.7004,2.0522,9.8888,2.0522,15.5731h0ZM494.8545,353.569c0,14.58-2.23,27.98-6.7,40.21-4.46,12.23-10.65,22.91-18.58,32.04-7.94,9.15-17.34,16.25-28.26,21.32-10.9,5.05-22.67,7.58-35.31,7.58-5.7,0-11.03-.49-15.98-1.47-4.96-1-9.66-2.67-14.13-5.01-4.46-2.35-8.86-5.38-13.19-9.1-4.34-3.71-8.86-8.29-13.57-13.73v117.42h-47.6v-277.81h47.6l.26,27.04c8.67-10.86,18.06-18.83,28.2-23.9,10.15-5.06,21.9-7.59,35.26-7.59,12.12,0,23.18,2.29,33.2,6.86,10.02,4.56,18.6801,10.93,25.98,19.08,7.29,8.16,12.92,17.91,16.88,29.28,3.96,11.36,5.94,23.95,5.94,37.78ZM443.0845,355.449c0-20.27-4.11-36.28-12.32-48.03-8.2-11.74-19.39-17.62-33.56-17.62-14.92,0-26.73,6.2401-35.43,18.73-8.7,12.49-13.06,29.37-13.06,50.63,0,20.77,4.29,37.09,12.86,48.95,8.58,11.88,20.34,17.8,35.26,17.8,8.95,0,16.33-2.28,22.19-6.85,5.84-4.58,10.56-10.39,14.17-17.43,3.6-7.04,6.15-14.72,7.64-23,1.49-8.28,2.25-16.01,2.25-23.18ZM516.0418,450.1458h48.8552V178.291h-48.8552v271.8548ZM773.5638,450.222v-185.4754h-48.8532v99.8142c0,8.9085-.3678,15.7669-1.1179,20.5853-.7463,4.8283-1.9904,9.2182-3.7264,13.1768-6.9386,15.3388-19.5973,23.0013-37.9644,23.0013-14.3889,0-24.4473-5.1883-30.1497-15.5933-2.2382-3.9422-3.7903-8.4042-4.6603-13.3447-.8664-4.9524-1.3002-12.1147-1.3002-21.5291v-106.1106h-48.8552v105.3786c0,7.1783.0623,13.2428.1921,18.1849.12,4.9462.4322,9.3366.9221,13.1748.4981,3.8402,1.056,7.2364,1.6782,10.2025.612,2.9686,1.5398,5.8187,2.7822,8.5345,4.4461,11.3769,11.6805,19.9774,21.7011,25.7957,10.0248,5.8024,22.3295,8.6984,36.9203,8.6984,13.1129,0,24.6156-2.2779,34.5142-6.8543,9.8945-4.5805,19.5412-12.0626,28.9417-22.4516l.1221,24.8118h48.8532ZM984.2885,450.1401v-105.1508c0-7.1582-.0717-13.2645-.1958-18.3291-.1241-5.0601-.4239-9.4406-.9282-13.1449-.4961-3.7001-1.1039-6.9624-1.856-9.8064-.732-2.8403-1.6082-5.6123-2.5962-8.3383-4.4523-11.1049-11.6887-19.6735-21.7053-25.7236-10.0289-6.0485-22.3336-9.0749-36.9343-9.0749-13.1088,0-24.6218,2.2882-34.5142,6.8707-9.9047,4.5701-19.5412,12.0667-28.9499,22.4454l-.0922-24.8057h-49.275v185.0576h49.275v-99.9203c0-8.6324.308-15.3569.9241-20.1691.6202-4.8086,1.7962-9.3067,3.5482-13.507,3.2123-7.3946,8.1208-13.0109,14.6933-16.8331,6.5761-3.8243,14.4606-5.7364,23.6452-5.7364,14.3971,0,24.4456,5.1846,30.1537,15.5412,2.2165,3.948,3.7804,8.4006,4.6365,13.3267.8758,4.9302,1.3079,12.0889,1.3079,21.4614v105.8366h48.863ZM1186.5811,437.9631l-74.4604-92.5876,62.9717-67.4063-37.0424-15.923-65.5437,75.9187h-5.1846v-159.6219h-49.271v271.849h49.271v-98.5202l73.6965,102.2203,45.563-15.9291ZM1377.0249,371.5108v-30.3298l-148.1492-74.3466v33.2882l114.811,55.8573-114.811,56.5955v32.5501l148.1492-73.6146ZM602.4069,622.5982h19.9528v-79.832h-19.9528v79.832ZM722.9622,582.671c0,25.7331,19.6912,41.3522,42.148,41.3522,8.863,0,15.6782-2.1192,18.1897-2.8429v-21.4268c-.867.4595-7.4136,4.223-16.7695,4.223-13.3022,0-21.8813-9.4499-21.8813-21.3055,0-12.1954,8.9526-21.3062,21.8813-21.3062,9.5204,0,15.9622,3.8839,16.7695,4.2909v-21.4414c-1.8833-.5584-8.8186-2.8436-18.1897-2.8436-24.3171,0-42.148,17.4525-42.148,41.3004ZM514.6467,582.671c0,25.7331,19.6844,41.3522,42.0922,41.3522,8.9304,0,15.7157-2.1192,18.2272-2.8429v-21.4268c-.89.4595-7.3984,4.223-16.755,4.223-13.3205,0-21.892-9.4499-21.892-21.3055,0-12.1954,8.9449-21.3062,21.892-21.3062,9.5242,0,15.9286,3.8839,16.755,4.2909v-21.4414c-1.8833-.5584-8.8263-2.8436-18.2272-2.8436-24.2758,0-42.0922,17.4525-42.0922,41.3004ZM887.8807,582.6663c0,22.8461-17.4631,41.3584-41.78,41.3584s-41.7702-18.5122-41.7702-41.3584c0-22.8069,17.4434-41.2996,41.7702-41.2996s41.78,18.4927,41.78,41.2996ZM866.7602,582.6663c0-11.5702-8.8149-20.9832-20.6596-20.9832s-20.6498,9.413-20.6498,20.9832c0,11.6388,8.8051,21.0321,20.6498,21.0321s20.6596-9.3933,20.6596-21.0321ZM684.7675,574.3974l-5.5074-1.7724c-3.2699-1.0488-9.1401-2.7533-9.1401-7.5871,0-3.8546,4.3305-6.5692,12.3456-6.5692,6.8788,0,15.3125,2.3532,15.6003,2.4505v-17.0524c-.6015-.1584-9.7301-2.5416-19.4486-2.5416-18.414,0-29.4963,10.0383-29.4963,24.9647,0,13.2133,9.3038,19.8126,20.383,23.342,1.2443.4148,3.0602.9955,4.2892,1.4103,4.9282,1.5615,8.8814,3.8846,8.8814,7.9122,0,4.5551-4.5547,7.4735-14.5013,7.4735-8.7207,0-17.091-2.5185-18.8471-2.9641v18.3878c.9979.1961,10.9367,2.1717,21.5415,2.1717,15.2712,0,32.7546-6.7345,32.7546-26.8043,0-9.714-5.9039-18.6813-18.8548-22.8215ZM970.2604,611.9659c-2.5593,1.8923-5.7699,2.838-9.6277,2.838-5.4171,0-9.4992-1.7614-12.2433-5.2867-2.7461-3.5238-4.1187-8.3292-4.1187-14.4143,0-6.5288,1.3913-11.6316,4.174-15.3046,2.7827-3.673,6.8816-5.51,12.2996-5.51,3.7096,0,6.7897.9289,9.2383,2.7827,2.4487,1.8558,4.0436,4.7501,4.7857,8.682h9.684c-.4457-3.7096-1.5969-7.1044-3.4507-10.1845-1.8558-3.0781-4.4714-5.5461-7.847-7.4018-3.3775-1.8538-7.513-2.7827-12.4103-2.7827-5.8628,0-10.7798,1.2629-14.7483,3.7847-3.9704,2.5233-6.9567,6.0105-8.9606,10.4626-2.003,4.4522-3.005,9.6104-3.005,15.4716,0,5.6399.9822,10.6124,2.9497,14.9148,1.9655,4.3044,4.9151,7.6627,8.849,10.0733,3.9319,2.4121,8.8292,3.6177,14.692,3.6177,4.9704,0,9.2008-.9462,12.689-2.8385,3.4872-1.8923,6.2145-4.3776,8.181-7.4576,1.9655-3.0781,3.173-6.4364,3.6177-10.0728h-9.683c-.8182,3.8588-2.505,6.7338-5.0653,8.6262ZM1034.2062,619.9799c4.007-2.4852,7.012-5.9359,9.016-10.3515,2.003-4.4141,3.005-9.4419,3.005-15.0823,0-5.7131-1.002-10.7581-3.005-15.1376-2.004-4.3771-5.009-7.8084-9.016-10.2956-4.007-2.4852-8.9794-3.7288-14.9153-3.7288s-10.9083,1.2436-14.9153,3.7288c-4.007,2.4872-7.012,5.9186-9.016,10.2956-2.003,4.3795-3.005,9.4246-3.005,15.1376s1.002,10.7606,3.005,15.1381c2.004,4.379,5.009,7.8104,9.016,10.2956,4.007,2.4872,8.9774,3.7288,14.9153,3.7288s10.9083-1.2416,14.9153-3.7288ZM1006.8806,609.4614c-2.8578-3.5618-4.2857-8.4957-4.2857-14.8036,0-6.381,1.4279-11.3708,4.2857-14.9706,2.8558-3.5984,6.9932-5.3988,12.4103-5.3988,5.4902,0,9.6454,1.7812,12.4666,5.343,2.8192,3.5618,4.2293,8.4977,4.2293,14.8036s-1.4101,11.2804-4.2293,14.9153c-2.8212,3.6364-6.9764,5.4537-12.4666,5.4537-5.4171,0-9.5545-1.7807-12.4103-5.3425ZM1067.3728,622.5955v-34.9503c0-2.8938.668-5.3425,2.004-7.346,1.336-2.0035,3.0416-3.5065,5.1197-4.508,2.0771-1.002,4.2303-1.503,6.4557-1.503,7.6424,0,11.4646,4.3795,11.4646,13.1346v35.1726h10.018v-34.9503c0-2.8938.6295-5.3425,1.8923-7.346,1.2609-2.0035,2.9111-3.5065,4.9527-4.508,2.0406-1.002,4.1364-1.503,6.2887-1.503,7.8648,0,11.7986,4.3795,11.7986,13.1346v35.1726h10.018v-36.6198c0-6.6785-1.6888-11.7794-5.0643-15.3046-3.3775-3.5238-8.0337-5.2872-13.9696-5.2872-4.3044,0-8.1079.9462-11.4083,2.8385-3.3024,1.8918-5.7709,4.2486-7.4023,7.0678-2.7461-6.6034-7.9409-9.9063-15.5823-9.9063-4.0821,0-7.5693.7792-10.4626,2.3375-2.8943,1.5583-5.1592,3.5618-6.7906,6.0105l-.7787-7.2348h-8.5703v56.0984h10.017ZM1160.8687,643.7437v-27.4926c2.004,2.4487,4.4892,4.3044,7.4576,5.5653,2.9674,1.2609,6.1948,1.8923,9.684,1.8923,5.4902,0,10.1099-1.2802,13.858-3.84,3.7461-2.5603,6.5841-6.0663,8.515-10.5185,1.9279-4.4527,2.8933-9.4977,2.8933-15.1376,0-5.4907-.9457-10.4073-2.838-14.7483-1.8923-4.341-4.6572-7.7724-8.2926-10.2956-3.6364-2.5218-8.0525-3.7847-13.2453-3.7847-4.0821,0-7.7353.7426-10.9636,2.2263-3.2283,1.4852-5.7709,3.673-7.6246,6.5668l-.8903-7.68h-8.5703v77.2465h10.017ZM1163.095,580.2993c1.4832-2.0035,3.4319-3.5065,5.844-4.508,2.4101-1.002,4.9141-1.503,7.513-1.503,5.4902,0,9.6277,1.8558,12.4103,5.5653,2.7827,3.7115,4.174,8.5708,4.174,14.5813,0,6.1602-1.4101,11.0941-4.2293,14.8036-2.8212,3.7115-6.9754,5.5653-12.4666,5.5653-2.671,0-5.175-.5005-7.513-1.5025-2.337-1.0015-4.2491-2.4852-5.7323-4.4522-1.4852-1.9655-2.2263-4.4334-2.2263-7.4018v-13.5793c0-3.0421.7411-5.5653,2.2263-7.5688ZM1257.9278,622.5955v-35.2843c0-6.7511-1.8745-12.0941-5.6207-16.028-3.7481-3.9324-9.2581-5.8993-16.529-5.8993-4.8252,0-8.9429.835-12.355,2.5045-3.4141,1.6695-6.0298,3.878-7.847,6.6227-1.8192,2.7461-2.8024,5.7882-2.9497,9.1271h9.349c.3706-3.339,1.7817-5.8242,4.2303-7.4576,2.4487-1.6315,5.4902-2.4487,9.1267-2.4487,3.2649,0,5.8242.5563,7.68,1.6695,1.8538,1.1132,3.1532,2.4872,3.8963,4.1187.7401,1.6329,1.1127,3.1913,1.1127,4.6745,0,1.4852-.3528,2.543-1.0573,3.1725-.7065.6314-2.2451,1.1319-4.6197,1.5025l-13.2453,1.7812c-3.339.4452-6.3825,1.2431-9.1267,2.3928-2.7461,1.1512-4.9359,2.8765-6.5673,5.176-1.6334,2.3009-2.4487,5.381-2.4487,9.2383,0,5.1202,1.6868,9.1099,5.0643,11.9656,3.3756,2.8573,8.2175,4.2852,14.526,4.2852,4.675,0,8.515-.7792,11.52-2.3375,3.005-1.5583,5.2491-3.4507,6.7343-5.6765l.7787,6.9008h8.348ZM1245.8515,610.5746c-1.5218,1.6329-3.507,2.8573-5.9556,3.673-2.4487.8172-5.0465,1.2243-7.7907,1.2243-3.4141,0-6.1602-.7046-8.2373-2.1147-2.0781-1.4086-3.1167-3.5984-3.1167-6.5673,0-2.8192.8903-4.8593,2.672-6.1217,1.7807-1.2609,4.3025-2.1147,7.5683-2.5603l17.1416-2.4487v8.682c0,2.5238-.7619,4.6019-2.2817,6.2333ZM465.3758,622.5955v-35.2843c0-6.7511-1.8745-12.0941-5.6207-16.028-3.7481-3.9324-9.2581-5.8993-16.529-5.8993-4.8252,0-8.9429.835-12.355,2.5045-3.4141,1.6695-6.0298,3.878-7.847,6.6227-1.8192,2.7461-2.8024,5.7882-2.9497,9.1271h9.349c.3706-3.339,1.7817-5.8242,4.2303-7.4576,2.4487-1.6315,5.4902-2.4487,9.1267-2.4487,3.2649,0,5.8242.5563,7.68,1.6695,1.8538,1.1132,3.1532,2.4872,3.8963,4.1187.7401,1.6329,1.1127,3.1913,1.1127,4.6745,0,1.4852-.3528,2.543-1.0573,3.1725-.7065.6314-2.2451,1.1319-4.6197,1.5025l-13.2453,1.7812c-3.339.4452-6.3825,1.2431-9.1267,2.3928-2.7461,1.1512-4.9359,2.8765-6.5673,5.176-1.6334,2.3009-2.4487,5.381-2.4487,9.2383,0,5.1202,1.6868,9.1099,5.0643,11.9656,3.3756,2.8573,8.2175,4.2852,14.526,4.2852,4.675,0,8.515-.7792,11.52-2.3375,3.005-1.5583,5.2491-3.4507,6.7343-5.6765l.7787,6.9008h8.348ZM453.2995,610.5746c-1.5218,1.6329-3.507,2.8573-5.9556,3.673-2.4487.8172-5.0465,1.2243-7.7907,1.2243-3.4141,0-6.1602-.7046-8.2373-2.1147-2.0781-1.4086-3.1167-3.5984-3.1167-6.5673,0-2.8192.8903-4.8593,2.672-6.1217,1.7807-1.2609,4.3025-2.1147,7.5683-2.5603l17.1416-2.4487v8.682c0,2.5238-.7619,4.6019-2.2817,6.2333ZM1281.4124,622.5955v-34.9503c0-2.8938.7233-5.3425,2.171-7.346,1.4467-2.0035,3.3202-3.5065,5.6207-4.508,2.2995-1.002,4.7116-1.503,7.2353-1.503,8.2363,0,12.355,4.3795,12.355,13.1346v35.1726h10.017v-36.6198c0-6.6785-1.7441-11.7794-5.2313-15.3046-3.4882-3.5238-8.3114-5.2872-14.4696-5.2872-4.3044,0-7.9962.7792-11.0753,2.3375-3.0801,1.5583-5.509,3.6364-7.2907,6.2333l-.7787-7.4576h-8.5703v56.0984h10.017ZM1334.951,644.8568c5.0455,0,9.016-1.2802,11.9093-3.84,2.8943-2.5603,5.3795-6.7724,7.4576-12.6331l22.7069-61.8865h-10.5743l-14.359,42.7414c-.4447,1.2629-.9644,1.8923-1.5583,1.8923s-1.1127-.6295-1.5573-1.8923l-14.359-42.7414h-10.9083l20.703,55.4304h2.7827l-1.7807,4.7862c-.9654,2.6715-2.0228,4.6923-3.172,6.0663-1.1512,1.3721-2.5238,2.3182-4.1187,2.8385-1.5969.5183-3.6177.7792-6.0663.7792h-3.1167v7.9028c1.6315.3701,3.6354.5563,6.011.5563Z"/></svg>